<svg width="32" height="32" viewBox="0 0 32 32" fill="none" xmlns="http://www.w3.org/2000/svg">
<rect width="32" height="32" rx="4" fill="#031473"/>
<g clip-path="url(#clip0_34_2417)">
<path d="M10.8001 21.7568C12.3501 21.7568 13.6001 22.9765 13.6001 24.4889C13.6001 26.0013 12.3501 27.221 10.8001 27.221C9.25003 27.221 8 26.0013 8 24.4889C8 22.9765 9.25003 21.7568 10.8001 21.7568Z" fill="#FC5D39"/>
<path d="M8 7.51136C8 5.99897 9.25003 4.7793 10.8001 4.7793C12.3501 4.7793 13.6001 5.99897 13.6001 7.51136C13.6001 9.02376 12.3501 10.2434 10.8001 10.2434C9.25003 10.2434 8 9.02376 8 7.51136Z" fill="#FC5D39"/>
<path d="M18.4004 16.0001C18.4004 14.4877 19.6504 13.2681 21.2004 13.2681C22.7505 13.2681 24.0005 14.4877 24.0005 16.0001C24.0005 17.5125 22.7505 18.7322 21.2004 18.7322C19.6504 18.7322 18.4004 17.5125 18.4004 16.0001Z" fill="#FC5D39"/>
<path d="M21.1479 10.72C22.1319 10.72 23.02 10.264 23.62 9.568C24.148 8.968 24.46 8.2 24.46 7.36C24.46 5.512 22.948 4 21.0999 4C19.3719 4 17.9559 5.296 17.7639 6.952C17.3798 10.144 14.6918 12.592 11.4517 12.64C9.60368 12.664 8.13965 14.152 8.13965 16C8.13965 17.848 9.60368 19.336 11.4517 19.36C14.6918 19.408 17.3798 21.856 17.7639 25.048C17.9559 26.704 19.3719 28 21.0999 28C22.948 28 24.46 26.488 24.46 24.64C24.46 23.8 24.148 23.032 23.62 22.432C23.02 21.736 22.1319 21.28 21.1479 21.28C20.5959 21.256 20.0679 21.184 19.5639 21.04C17.2118 20.416 14.9078 18.4 14.9078 16C14.9078 13.6 17.2118 11.584 19.5639 10.96C20.0679 10.816 20.5959 10.744 21.1479 10.72Z" fill="white"/>
</g>
<defs>
<clipPath id="clip0_34_2417">
<rect width="16.46" height="24" fill="white" transform="translate(8 4)"/>
</clipPath>
</defs>
</svg>
